<?xml version="1.0" encoding="UTF-8"?>
<svg version="1.1" viewBox="0 0 20 20" xml:space="preserve" xmlns="http://www.w3.org/2000/svg">
<path d="m16.613 19.083h-13.2c-1.32 0-2.4-1.08-2.4-2.4v-13.2c0-1.32 1.08-2.4 2.4-2.4h13.2c1.32 0 2.4 1.08 2.4 2.4v13.2c0 1.32-1.08 2.4-2.4 2.4z" display="none" stroke-width="0"/>

<path d="m4.0002 4.0352h4v4h-4zm8 0h4v4h-4zm-8 8h4v4h-4zm8 0h4v4h-4zm-4-4h4v4h-4z" display="none" fill="#fff" stroke-width=".01227" p-id="6165"/><path d="m16.613 19.083h-13.2c-1.32 0-2.4-1.08-2.4-2.4v-13.2c0-1.32 1.08-2.4 2.4-2.4h13.2c1.32 0 2.4 1.08 2.4 2.4v13.2c0 1.32-1.08 2.4-2.4 2.4z" fill="#fff" stroke-width="0"/><g transform="matrix(.01408 0 0 .01408 1.9387 2.8513)" display="none"><path d="m328.15 938.67 148.89 39.623v-51.812l12.16-12.188h85.077v103.61h-91.164l-112.43-48.754-42.51-30.478z" fill="#cdbdb2" p-id="8414"/><path d="m814.32 938.67-145.85 39.623v-51.812l-12.16-12.188h-85.077v103.61h91.164l112.41-48.754z" fill="#cdbdb2" p-id="8415"/><path d="m489.2 825.9-12.16 100.58 15.189-12.188h158.01l18.233 12.188-12.16-100.58-24.306-15.232-121.54 3.0436z" fill="#393939" p-id="8416"/><path d="m407.15 146.29 72.932 170.67 33.422 496.75h118.5l36.466-496.75 66.844-170.67z" fill="#f89c35" p-id="8417"/><path d="m88.121 521.14-85.077 246.86 212.69-12.188h136.73v-106.67l-6.0871-219.43-30.379 24.391z" fill="#f89d35" p-id="8418"/><path d="m249.16 548.57 249.16 6.1013-27.349 128-118.5-30.478z" fill="#d87c30" p-id="8419"/><path d="m249.16 551.62 103.31 97.522v97.522z" fill="#ea8d3a" p-id="8420"/><path d="m352.47 652.19 121.53 30.478 39.509 131.04-27.349 15.246-133.69-79.246z" fill="#f89d35" p-id="8421"/><path d="m352.47 749.71-24.32 188.96 161.05-112.77z" fill="#eb8f35" p-id="8422"/><path d="m498.32 554.67 15.189 259.04-45.582-132.57z" fill="#ea8e3a" p-id="8423"/><path d="m212.69 752.77 139.78-3.0578-24.32 188.96z" fill="#d87c30" p-id="8424"/><path d="m69.888 1021 258.28-82.29-115.47-185.9-209.65 15.232z" fill="#eb8f35" p-id="8425"/><path d="m480.09 316.96-130.66 109.71-100.27 121.9 249.16 9.1449z" fill="#e8821e" p-id="8426"/><path d="m328.15 938.67 161.05-112.77-12.16 97.536v54.855l-109.38-21.333-39.495-18.29zm486.17 0-158.01-112.77 12.16 97.536v54.855l109.37-21.333 36.494-18.29z" fill="#dfcec3" p-id="8427"/><path d="m431.46 609.52 33.422 70.101-118.49-30.478z" fill="#393939" p-id="8428"/><path d="m66.844 3.0436 413.24 313.91-69.888-170.67z" fill="#e88f35" p-id="8429"/><path d="m66.844 3.0436-54.699 167.62 30.393 182.86-21.276 12.188 30.393 27.435-24.32 21.333 33.422 30.478-21.262 18.276 48.626 60.956 227.88-70.087s167.11-134.1 164.08-137.14c-3.0436-3.072-413.24-313.91-413.24-313.91z" fill="#8e5a30" p-id="8430"/><path d="m1054.4 521.14 85.092 246.86-212.71-12.188h-136.73v-106.67l6.0871-219.43 30.379 24.391z" fill="#f89d35" p-id="8431"/><path d="m893.31 548.57-249.16 6.1013 27.349 128 118.5-30.478z" fill="#d87c30" p-id="8432"/><path d="m893.31 551.62-103.31 97.522v97.522z" fill="#ea8d3a" p-id="8433"/><path d="m790 652.19-121.53 30.478-39.509 131.04 27.349 15.246 133.69-79.246z" fill="#f89d35" p-id="8434"/><path d="m790 749.71 24.32 188.96-158.01-109.71z" fill="#eb8f35" p-id="8435"/><path d="m644.15 554.67-15.189 259.04 45.582-132.57z" fill="#ea8e3a" p-id="8436"/><path d="m929.78 752.77-139.78-3.0578 24.32 188.96z" fill="#d87c30" p-id="8437"/><path d="m1072.6 1021-258.28-82.29 115.47-185.9 209.66 15.232-66.844 252.96z" fill="#eb8f35" p-id="8438"/><path d="m662.39 316.96 130.66 109.71 100.27 121.9-249.16 9.1449z" fill="#e8821e" p-id="8439"/><path d="m711 609.52-33.422 70.101 118.51-30.478z" fill="#393939" p-id="8440"/><path d="m1075.6 3.0436-413.24 313.91 69.888-170.67z" fill="#e88f35" p-id="8441"/><path d="m1075.6 3.0436 54.699 167.62-30.393 182.86 21.276 12.188-30.393 27.435 24.32 21.333-33.422 30.478 21.262 18.276-48.612 60.956-227.91-70.073s-167.11-134.1-164.08-137.14c3.0578-3.0862 413.26-313.93 413.26-313.93z" fill="#8e5a30" p-id="8442"/></g><g transform="matrix(.016602 0 0 .016602 1.7063 1.5425)" fill="#ff007a"><path d="m405.48 232.9c-11.093-1.5929-11.634-2.1333-6.3431-2.6453 10.041-1.5929 33.28 0.512 49.636 4.2098 38.03 8.9884 72.363 32.228 108.8 72.903l9.5004 11.093 13.739-2.1333c58.596-9.5004 118.81-2.1049 168.96 21.134 13.739 6.3431 35.413 19.001 38.059 22.187 1.0524 1.0524 2.6169 7.9076 3.6978 14.791 3.6978 24.804 2.1049 43.292-5.8311 57.543-4.2098 7.936-4.2098 10.041-1.5644 16.896 2.1049 5.2907 8.448 8.9884 14.222 8.9884 12.686 0 25.884-20.082 32.228-48.071l2.6453-11.093 4.7502 5.2907c26.937 30.094 48.071 71.822 51.228 101.4l1.0524 7.9076-4.7502-6.8267c-7.9076-12.174-15.303-20.082-25.316-26.965-17.977-12.146-36.978-15.844-87.154-18.489-45.426-2.6169-71.31-6.3147-96.654-14.791-43.292-14.222-65.479-32.711-116.71-100.86-22.699-30.094-36.978-46.45-51.228-60.188-31.147-30.094-62.293-45.938-102.97-52.281z" p-id="27692"/><path d="m798.89 299.98c1.0809-20.082 3.6978-33.28 9.5289-45.426 2.1049-4.7502 4.2098-8.9884 4.7502-8.9884 0.512 0-0.54045 3.6978-2.1333 7.936-4.2098 11.605-4.7502 27.989-2.1049 46.478 3.6978 23.751 5.2907 26.937 30.635 52.793 11.605 12.146 25.344 27.477 30.635 33.82l8.9884 11.605-8.9884-8.448c-11.093-10.553-36.437-30.635-42.24-33.28-3.6978-2.1049-4.2382-2.1049-6.8836 0.54044-2.1049 2.1049-2.6453 5.2622-2.6453 20.594-0.512 23.751-3.6978 38.542-11.605 53.874-4.2382 7.9076-4.7502 6.3147-1.0524-2.6453 2.6453-6.8836 3.1573-10.041 3.1573-32.74 0-45.966-5.2622-57.031-37.49-75.52a394.33 394.33 0 0 0-29.582-15.332c-8.448-3.6978-14.791-6.8551-14.251-6.8551 1.0524-1.0524 32.228 7.9076 44.373 13.198 18.489 7.3956 21.618 7.936 23.751 7.3956 1.5929-1.5929 2.6453-5.8027 3.1573-19.001zm-371.77 78.677c-22.187-30.635-36.437-78.165-33.28-113.55l1.0524-11.093 5.2907 1.0809c9.5004 1.5644 25.884 7.9076 33.792 12.658 21.134 12.686 30.635 30.094 39.623 73.387 2.6169 12.686 6.3147 27.477 7.9076 32.228 2.6453 7.936 12.686 26.425 21.134 38.03 5.8027 8.448 2.1049 12.686-11.093 11.634-20.082-2.1333-47.019-20.622-64.427-44.373zm344.86 229.72c-104.59-42.24-141.54-78.677-141.54-140.46 0-8.9884 0.512-16.384 0.512-16.384 0.54044 0 4.2382 3.1858 8.9884 6.8836 21.134 16.896 44.885 24.292 110.9 33.792 38.542 5.8027 60.729 10.041 80.782 16.896 63.915 21.134 103.54 64.427 113.04 123.05 2.6453 16.896 1.0524 49.095-3.1858 65.991-3.6978 13.227-14.251 37.518-16.896 38.03-0.512 0-1.5644-2.6169-1.5644-6.8551-1.0809-22.187-12.174-43.292-30.635-59.676-22.187-19.001-50.716-33.28-120.41-61.269zm-73.956 17.436a125.1 125.1 0 0 0-5.2622-22.187l-2.6453-7.9076 4.7502 5.8027c6.8551 7.9076 12.146 17.436 16.896 30.635 3.6978 10.041 3.6978 13.198 3.6978 29.582 0 15.844-0.54044 19.513-3.6978 28.501a95.573 95.573 0 0 1-22.187 35.385c-19.001 19.541-43.804 30.094-79.218 34.844-6.3431 0.54045-24.292 2.1333-40.107 3.1858-39.623 2.1049-66.048 6.3431-89.799 14.791-3.1573 1.0524-6.3431 2.1049-6.8551 1.5644-1.0809-1.0524 15.303-10.524 28.501-16.896 18.489-8.96 37.49-13.71 79.218-21.106 20.594-3.1858 41.728-7.3956 47.019-9.5289 52.281-16.356 78.137-57.031 69.689-106.67z" p-id="27693"/><path d="m746.1 710.83c-13.739-30.094-16.896-58.596-9.5004-85.561 1.0524-2.6169 2.1049-5.2622 3.1573-5.2622 1.0524 0 4.2382 1.5929 7.3956 3.6978 6.3431 4.2098 19.541 11.605 53.333 30.094 42.78 23.239 67.072 41.188 83.968 61.781 14.791 17.977 23.78 38.571 27.989 63.915 2.6453 14.251 1.0524 48.583-2.6453 62.862-11.605 44.857-38.002 80.782-76.572 101.38a73.387 73.387 0 0 1-11.093 5.2907c-0.512 0 1.5929-5.2907 4.7502-11.634 12.686-26.937 14.279-52.793 4.7787-81.863-5.8311-17.92-17.977-39.595-42.268-76.032-29.013-42.24-35.897-53.333-43.292-68.665zm-393.44 161.59c39.083-32.711 87.125-55.979 131.5-63.346 19.001-3.1858 50.688-2.1333 68.124 2.6169 27.989 7.3956 53.333 23.239 66.56 42.78 12.658 19.029 18.489 35.385 24.263 71.822 2.1333 14.279 4.7502 29.042 5.2907 32.228 4.2382 19.001 12.686 33.792 23.239 41.728 16.384 12.146 44.885 12.658 72.875 2.1049 4.7502-1.5929 8.9884-3.1858 8.9884-2.6454 1.0524 1.0525-13.198 10.553-22.727 15.303-13.198 6.8835-23.751 8.9884-38.002 8.9884-25.372 0-47.019-13.198-64.427-39.595-3.6978-5.2907-11.093-20.622-17.436-34.873-18.489-42.78-27.989-55.467-49.636-69.689-19.029-12.174-43.321-14.791-61.81-5.8311-24.292 11.634-30.606 42.78-13.71 61.781 6.8551 7.936 19.541 14.279 30.094 15.844a32.228 32.228 0 0 0 36.437-32.199c0-12.686-4.7502-20.082-17.436-25.884-16.896-7.3956-35.385 1.0524-34.844 17.436 0 6.8551 3.1573 11.093 10.041 14.251 4.2098 2.1049 4.2098 2.1049 1.0524 1.5929-15.332-3.1858-19.029-22.187-6.8836-34.332 14.791-14.791 45.966-8.448 56.519 12.146 4.2382 8.448 4.7502 25.344 1.0524 35.925-8.96 23.211-34.332 35.356-60.188 28.501-17.436-4.7502-24.832-9.5004-45.966-31.147-36.978-38.03-51.2-45.426-104.02-53.333l-10.041-1.5929z" p-id="27694"/><path d="m74.866 22.699c123.05 149.48 312.63 381.84 322.16 394.52 7.9076 10.524 4.7502 20.565-8.4764 27.961-7.3956 4.2382-22.699 8.448-30.094 8.448-8.448 0-18.489-4.2098-25.344-11.093-4.7502-4.7502-25.344-34.844-71.822-107.18a6850.6 6850.6 0 0 0-65.991-101.94c-2.1333-1.0524-2.1333-1.0524 62.293 114.06 40.676 72.363 53.874 98.247 53.874 101.4 0 6.8836-2.1049 10.581-10.581 20.082-14.222 15.844-20.594 33.792-25.316 71.282-5.3191 41.728-19.57 71.31-60.245 121.46-23.78 29.582-27.477 34.873-33.28 47.019-7.3956 14.791-9.5004 23.239-10.553 42.24-1.0524 20.082 1.0524 32.74 6.8551 51.769 5.2907 16.896 11.093 27.989 25.344 49.636 12.146 19.001 19.541 33.28 19.541 38.542 0 4.2382 1.0524 4.2382 20.082 0 45.397-10.553 82.916-28.501 103.51-50.688 12.658-13.739 15.844-21.134 15.844-40.135 0-12.146-0.54045-14.791-3.6978-22.187-5.2907-11.605-15.332-21.134-36.978-35.897-28.501-19.541-40.676-35.385-43.804-56.519-2.6738-17.948 0.512-30.094 16.356-63.374 16.356-34.332 20.594-48.583 23.239-83.428 1.5644-22.187 4.2098-31.175 10.524-38.03 6.8836-7.3956 12.686-10.041 29.07-12.146 26.937-3.6978 44.373-10.581 58.084-23.78 12.146-11.093 17.436-22.187 17.977-38.542l0.512-12.146-6.8551-7.3956c-24.804-28.53-368.61-406.64-370.2-406.64-0.54044 0 7.9076 10.041 17.948 22.699zm162.13 750.99a21.788 21.788 0 0 0-6.8551-29.07c-8.9884-5.8027-22.727-3.1573-22.727 4.7787 0 2.1049 1.0524 4.2098 4.2382 5.2622 4.7502 2.6453 5.2622 5.2907 1.5644 11.093-3.6978 5.8027-3.6978 11.093 1.0809 14.791 7.3956 5.8027 17.408 2.6453 22.699-6.8551zm213.87-277.79c-12.658 3.6978-24.804 17.408-28.501 31.147-2.1333 8.448-1.0524 23.78 2.6453 28.53 5.8027 7.3956 11.093 9.5004 25.884 9.5004 29.013 0 53.845-12.686 56.491-27.989 2.6453-12.686-8.448-30.094-23.78-38.03-7.9076-4.2098-24.292-5.8027-32.711-3.1573zm33.82 26.396c4.2098-6.3431 2.6169-13.198-5.2907-17.948-14.251-8.9884-35.925-1.5929-35.925 12.146 0 6.8551 11.093 14.251 21.675 14.251 6.8267 0 16.356-4.2098 19.541-8.448z" p-id="27695"/></g></svg>
